<mxfile host="Electron" agent="Mozilla/5.0 (Windows NT 10.0; Win64; x64) AppleWebKit/537.36 (KHTML, like Gecko) draw.io/24.7.17 Chrome/128.0.6613.36 Electron/32.0.1 Safari/537.36" version="24.7.17">
  <diagram id="C5RBs43oDa-KdzZeNtuy" name="Page-1">
    <mxGraphModel dx="2073" dy="788" grid="1" gridSize="10" guides="1" tooltips="1" connect="1" arrows="1" fold="1" page="1" pageScale="1" pageWidth="827" pageHeight="1169" math="0" shadow="0">
      <root>
        <mxCell id="WIyWlLk6GJQsqaUBKTNV-0" />
        <mxCell id="WIyWlLk6GJQsqaUBKTNV-1" parent="WIyWlLk6GJQsqaUBKTNV-0" />
        <mxCell id="W_4Bm7sXQjZraBUoMWmw-0" value="Роли" style="rounded=0;whiteSpace=wrap;html=1;fontStyle=1" parent="WIyWlLk6GJQsqaUBKTNV-1" vertex="1">
          <mxGeometry x="60" y="80" width="110" height="30" as="geometry" />
        </mxCell>
        <mxCell id="W_4Bm7sXQjZraBUoMWmw-1" value="Назначаются" style="rhombus;whiteSpace=wrap;html=1;fontStyle=1" parent="WIyWlLk6GJQsqaUBKTNV-1" vertex="1">
          <mxGeometry x="60" y="160" width="110" height="40" as="geometry" />
        </mxCell>
        <mxCell id="W_4Bm7sXQjZraBUoMWmw-3" value="Пользователи" style="rounded=0;whiteSpace=wrap;html=1;fontStyle=1" parent="WIyWlLk6GJQsqaUBKTNV-1" vertex="1">
          <mxGeometry x="60" y="250" width="110" height="30" as="geometry" />
        </mxCell>
        <mxCell id="W_4Bm7sXQjZraBUoMWmw-4" value="Отчёты" style="rounded=0;whiteSpace=wrap;html=1;fontStyle=1" parent="WIyWlLk6GJQsqaUBKTNV-1" vertex="1">
          <mxGeometry x="60" y="398" width="110" height="30" as="geometry" />
        </mxCell>
        <mxCell id="39qr3r9xYdan70bBbCt1-0" value="Процессы" style="rounded=0;whiteSpace=wrap;html=1;fontStyle=1" parent="WIyWlLk6GJQsqaUBKTNV-1" vertex="1">
          <mxGeometry x="60" y="570" width="110" height="30" as="geometry" />
        </mxCell>
        <mxCell id="39qr3r9xYdan70bBbCt1-3" value="" style="endArrow=none;html=1;rounded=0;edgeStyle=orthogonalEdgeStyle;entryX=0.5;entryY=1;entryDx=0;entryDy=0;exitX=0.5;exitY=0;exitDx=0;exitDy=0;fontStyle=1" parent="WIyWlLk6GJQsqaUBKTNV-1" source="W_4Bm7sXQjZraBUoMWmw-1" target="W_4Bm7sXQjZraBUoMWmw-0" edge="1">
          <mxGeometry width="50" height="50" relative="1" as="geometry">
            <mxPoint x="210" y="330" as="sourcePoint" />
            <mxPoint x="260" y="280" as="targetPoint" />
          </mxGeometry>
        </mxCell>
        <mxCell id="39qr3r9xYdan70bBbCt1-14" value="&lt;font style=&quot;font-size: 18px;&quot;&gt;1&lt;/font&gt;" style="edgeLabel;html=1;align=center;verticalAlign=middle;resizable=0;points=[];fontStyle=1" parent="39qr3r9xYdan70bBbCt1-3" vertex="1" connectable="0">
          <mxGeometry x="0.12" relative="1" as="geometry">
            <mxPoint as="offset" />
          </mxGeometry>
        </mxCell>
        <mxCell id="39qr3r9xYdan70bBbCt1-4" value="" style="endArrow=none;html=1;rounded=0;edgeStyle=orthogonalEdgeStyle;entryX=0.5;entryY=1;entryDx=0;entryDy=0;exitX=0.5;exitY=0;exitDx=0;exitDy=0;fontStyle=1" parent="WIyWlLk6GJQsqaUBKTNV-1" source="W_4Bm7sXQjZraBUoMWmw-3" target="W_4Bm7sXQjZraBUoMWmw-1" edge="1">
          <mxGeometry width="50" height="50" relative="1" as="geometry">
            <mxPoint x="335" y="290" as="sourcePoint" />
            <mxPoint x="200" y="180" as="targetPoint" />
          </mxGeometry>
        </mxCell>
        <mxCell id="39qr3r9xYdan70bBbCt1-17" value="&lt;font style=&quot;font-size: 18px;&quot;&gt;&lt;b&gt;N&lt;/b&gt;&lt;/font&gt;" style="edgeLabel;html=1;align=center;verticalAlign=middle;resizable=0;points=[];" parent="39qr3r9xYdan70bBbCt1-4" vertex="1" connectable="0">
          <mxGeometry x="0.04" relative="1" as="geometry">
            <mxPoint as="offset" />
          </mxGeometry>
        </mxCell>
        <mxCell id="39qr3r9xYdan70bBbCt1-5" value="" style="endArrow=none;html=1;rounded=0;edgeStyle=orthogonalEdgeStyle;entryX=0.5;entryY=1;entryDx=0;entryDy=0;fontStyle=1;exitX=0.5;exitY=0;exitDx=0;exitDy=0;" parent="WIyWlLk6GJQsqaUBKTNV-1" source="W_4Bm7sXQjZraBUoMWmw-0" target="39qr3r9xYdan70bBbCt1-23" edge="1">
          <mxGeometry width="50" height="50" relative="1" as="geometry">
            <mxPoint x="760" y="200" as="sourcePoint" />
            <mxPoint x="540" y="110" as="targetPoint" />
          </mxGeometry>
        </mxCell>
        <mxCell id="39qr3r9xYdan70bBbCt1-6" value="" style="endArrow=none;html=1;rounded=0;edgeStyle=orthogonalEdgeStyle;entryX=1;entryY=0.5;entryDx=0;entryDy=0;fontStyle=1;exitX=0;exitY=0.5;exitDx=0;exitDy=0;" parent="WIyWlLk6GJQsqaUBKTNV-1" source="p_pnH_h7yqQXDwHXi8lg-4" target="p_pnH_h7yqQXDwHXi8lg-0" edge="1">
          <mxGeometry width="50" height="50" relative="1" as="geometry">
            <mxPoint x="400" y="180" as="sourcePoint" />
            <mxPoint x="360" y="165" as="targetPoint" />
          </mxGeometry>
        </mxCell>
        <mxCell id="p_pnH_h7yqQXDwHXi8lg-6" value="&lt;b&gt;&lt;font style=&quot;font-size: 18px;&quot;&gt;1&lt;/font&gt;&lt;/b&gt;" style="edgeLabel;html=1;align=center;verticalAlign=middle;resizable=0;points=[];" parent="39qr3r9xYdan70bBbCt1-6" vertex="1" connectable="0">
          <mxGeometry x="-0.0571" y="2" relative="1" as="geometry">
            <mxPoint as="offset" />
          </mxGeometry>
        </mxCell>
        <mxCell id="39qr3r9xYdan70bBbCt1-7" value="" style="endArrow=none;html=1;rounded=0;edgeStyle=orthogonalEdgeStyle;entryX=0.5;entryY=1;entryDx=0;entryDy=0;fontStyle=1;exitX=0.5;exitY=0;exitDx=0;exitDy=0;" parent="WIyWlLk6GJQsqaUBKTNV-1" source="p_pnH_h7yqQXDwHXi8lg-13" target="p_pnH_h7yqQXDwHXi8lg-10" edge="1">
          <mxGeometry width="50" height="50" relative="1" as="geometry">
            <mxPoint x="416" y="860" as="sourcePoint" />
            <mxPoint x="196" y="770" as="targetPoint" />
          </mxGeometry>
        </mxCell>
        <mxCell id="p_pnH_h7yqQXDwHXi8lg-52" value="&lt;b&gt;&lt;font style=&quot;font-size: 18px;&quot;&gt;1&lt;/font&gt;&lt;/b&gt;" style="edgeLabel;html=1;align=center;verticalAlign=middle;resizable=0;points=[];" parent="39qr3r9xYdan70bBbCt1-7" vertex="1" connectable="0">
          <mxGeometry y="-1" relative="1" as="geometry">
            <mxPoint x="-1" y="-1" as="offset" />
          </mxGeometry>
        </mxCell>
        <mxCell id="39qr3r9xYdan70bBbCt1-9" value="" style="endArrow=none;html=1;rounded=0;edgeStyle=orthogonalEdgeStyle;entryX=1;entryY=0.25;entryDx=0;entryDy=0;fontStyle=1;exitX=0.5;exitY=1;exitDx=0;exitDy=0;" parent="WIyWlLk6GJQsqaUBKTNV-1" source="39qr3r9xYdan70bBbCt1-50" target="W_4Bm7sXQjZraBUoMWmw-3" edge="1">
          <mxGeometry width="50" height="50" relative="1" as="geometry">
            <mxPoint x="440" y="390" as="sourcePoint" />
            <mxPoint x="220" y="300" as="targetPoint" />
          </mxGeometry>
        </mxCell>
        <mxCell id="p_pnH_h7yqQXDwHXi8lg-8" value="&lt;b&gt;&lt;font style=&quot;font-size: 18px;&quot;&gt;N&lt;/font&gt;&lt;/b&gt;" style="edgeLabel;html=1;align=center;verticalAlign=middle;resizable=0;points=[];" parent="39qr3r9xYdan70bBbCt1-9" vertex="1" connectable="0">
          <mxGeometry x="0.075" y="-1" relative="1" as="geometry">
            <mxPoint x="32" y="-34" as="offset" />
          </mxGeometry>
        </mxCell>
        <mxCell id="39qr3r9xYdan70bBbCt1-23" value="Наименование" style="ellipse;whiteSpace=wrap;html=1;" parent="WIyWlLk6GJQsqaUBKTNV-1" vertex="1">
          <mxGeometry x="60" y="50" width="110" height="20" as="geometry" />
        </mxCell>
        <mxCell id="39qr3r9xYdan70bBbCt1-25" value="" style="endArrow=none;html=1;rounded=0;edgeStyle=orthogonalEdgeStyle;entryX=0.5;entryY=1;entryDx=0;entryDy=0;fontStyle=1;exitX=0;exitY=0.5;exitDx=0;exitDy=0;" parent="WIyWlLk6GJQsqaUBKTNV-1" source="W_4Bm7sXQjZraBUoMWmw-3" target="39qr3r9xYdan70bBbCt1-26" edge="1">
          <mxGeometry width="50" height="50" relative="1" as="geometry">
            <mxPoint x="-70" y="180" as="sourcePoint" />
            <mxPoint x="410" y="205" as="targetPoint" />
          </mxGeometry>
        </mxCell>
        <mxCell id="39qr3r9xYdan70bBbCt1-26" value="Фамилия" style="ellipse;whiteSpace=wrap;html=1;" parent="WIyWlLk6GJQsqaUBKTNV-1" vertex="1">
          <mxGeometry x="-70" y="220" width="60" height="20" as="geometry" />
        </mxCell>
        <mxCell id="39qr3r9xYdan70bBbCt1-27" value="" style="endArrow=none;html=1;rounded=0;edgeStyle=orthogonalEdgeStyle;entryX=0.5;entryY=1;entryDx=0;entryDy=0;fontStyle=1;exitX=0;exitY=0.5;exitDx=0;exitDy=0;" parent="WIyWlLk6GJQsqaUBKTNV-1" source="W_4Bm7sXQjZraBUoMWmw-3" target="39qr3r9xYdan70bBbCt1-28" edge="1">
          <mxGeometry width="50" height="50" relative="1" as="geometry">
            <mxPoint x="60" y="260" as="sourcePoint" />
            <mxPoint x="430" y="275" as="targetPoint" />
          </mxGeometry>
        </mxCell>
        <mxCell id="39qr3r9xYdan70bBbCt1-28" value="Имя" style="ellipse;whiteSpace=wrap;html=1;" parent="WIyWlLk6GJQsqaUBKTNV-1" vertex="1">
          <mxGeometry x="-20" y="200" width="40" height="20" as="geometry" />
        </mxCell>
        <mxCell id="39qr3r9xYdan70bBbCt1-29" value="" style="endArrow=none;html=1;rounded=0;edgeStyle=orthogonalEdgeStyle;entryX=0.5;entryY=0;entryDx=0;entryDy=0;fontStyle=1;exitX=0;exitY=0.5;exitDx=0;exitDy=0;" parent="WIyWlLk6GJQsqaUBKTNV-1" source="W_4Bm7sXQjZraBUoMWmw-3" target="39qr3r9xYdan70bBbCt1-30" edge="1">
          <mxGeometry width="50" height="50" relative="1" as="geometry">
            <mxPoint x="-70" y="180" as="sourcePoint" />
            <mxPoint x="490" y="35" as="targetPoint" />
          </mxGeometry>
        </mxCell>
        <mxCell id="39qr3r9xYdan70bBbCt1-30" value="Отчество" style="ellipse;whiteSpace=wrap;html=1;" parent="WIyWlLk6GJQsqaUBKTNV-1" vertex="1">
          <mxGeometry x="-70" y="275" width="60" height="20" as="geometry" />
        </mxCell>
        <mxCell id="39qr3r9xYdan70bBbCt1-32" value="" style="endArrow=none;html=1;rounded=0;edgeStyle=orthogonalEdgeStyle;entryX=0.5;entryY=1;entryDx=0;entryDy=0;fontStyle=1;exitX=0;exitY=0.5;exitDx=0;exitDy=0;" parent="WIyWlLk6GJQsqaUBKTNV-1" source="W_4Bm7sXQjZraBUoMWmw-3" target="39qr3r9xYdan70bBbCt1-33" edge="1">
          <mxGeometry width="50" height="50" relative="1" as="geometry">
            <mxPoint x="-70" y="265" as="sourcePoint" />
            <mxPoint x="410" y="290" as="targetPoint" />
          </mxGeometry>
        </mxCell>
        <mxCell id="39qr3r9xYdan70bBbCt1-34" value="" style="endArrow=none;html=1;rounded=0;edgeStyle=orthogonalEdgeStyle;entryX=1;entryY=0.5;entryDx=0;entryDy=0;fontStyle=1;exitX=0;exitY=0.5;exitDx=0;exitDy=0;" parent="WIyWlLk6GJQsqaUBKTNV-1" source="W_4Bm7sXQjZraBUoMWmw-3" target="39qr3r9xYdan70bBbCt1-35" edge="1">
          <mxGeometry width="50" height="50" relative="1" as="geometry">
            <mxPoint x="-70" y="265" as="sourcePoint" />
            <mxPoint x="430" y="360" as="targetPoint" />
          </mxGeometry>
        </mxCell>
        <mxCell id="39qr3r9xYdan70bBbCt1-35" value="№ телефона" style="ellipse;whiteSpace=wrap;html=1;" parent="WIyWlLk6GJQsqaUBKTNV-1" vertex="1">
          <mxGeometry x="-130" y="255" width="80" height="20" as="geometry" />
        </mxCell>
        <mxCell id="39qr3r9xYdan70bBbCt1-36" value="" style="endArrow=none;html=1;rounded=0;edgeStyle=orthogonalEdgeStyle;entryX=0.5;entryY=0;entryDx=0;entryDy=0;fontStyle=1;exitX=0;exitY=0.5;exitDx=0;exitDy=0;" parent="WIyWlLk6GJQsqaUBKTNV-1" source="W_4Bm7sXQjZraBUoMWmw-3" target="39qr3r9xYdan70bBbCt1-37" edge="1">
          <mxGeometry width="50" height="50" relative="1" as="geometry">
            <mxPoint x="-70" y="265" as="sourcePoint" />
            <mxPoint x="490" y="120" as="targetPoint" />
          </mxGeometry>
        </mxCell>
        <mxCell id="39qr3r9xYdan70bBbCt1-37" value="Пароль" style="ellipse;whiteSpace=wrap;html=1;" parent="WIyWlLk6GJQsqaUBKTNV-1" vertex="1">
          <mxGeometry y="280" width="60" height="20" as="geometry" />
        </mxCell>
        <mxCell id="39qr3r9xYdan70bBbCt1-33" value="Э. почта" style="ellipse;whiteSpace=wrap;html=1;" parent="WIyWlLk6GJQsqaUBKTNV-1" vertex="1">
          <mxGeometry x="10" y="220" width="60" height="20" as="geometry" />
        </mxCell>
        <mxCell id="39qr3r9xYdan70bBbCt1-40" value="" style="endArrow=none;html=1;rounded=0;edgeStyle=orthogonalEdgeStyle;entryX=0.5;entryY=0;entryDx=0;entryDy=0;fontStyle=1;exitX=0.5;exitY=1;exitDx=0;exitDy=0;" parent="WIyWlLk6GJQsqaUBKTNV-1" source="39qr3r9xYdan70bBbCt1-0" target="39qr3r9xYdan70bBbCt1-41" edge="1">
          <mxGeometry width="50" height="50" relative="1" as="geometry">
            <mxPoint x="166" y="785" as="sourcePoint" />
            <mxPoint x="686" y="810" as="targetPoint" />
          </mxGeometry>
        </mxCell>
        <mxCell id="39qr3r9xYdan70bBbCt1-41" value="Название" style="ellipse;whiteSpace=wrap;html=1;" parent="WIyWlLk6GJQsqaUBKTNV-1" vertex="1">
          <mxGeometry x="124" y="618" width="60" height="20" as="geometry" />
        </mxCell>
        <mxCell id="39qr3r9xYdan70bBbCt1-42" value="" style="endArrow=none;html=1;rounded=0;edgeStyle=orthogonalEdgeStyle;entryX=0.5;entryY=0;entryDx=0;entryDy=0;fontStyle=1;exitX=0.5;exitY=1;exitDx=0;exitDy=0;" parent="WIyWlLk6GJQsqaUBKTNV-1" source="39qr3r9xYdan70bBbCt1-0" target="39qr3r9xYdan70bBbCt1-43" edge="1">
          <mxGeometry width="50" height="50" relative="1" as="geometry">
            <mxPoint x="166" y="785" as="sourcePoint" />
            <mxPoint x="706" y="880" as="targetPoint" />
          </mxGeometry>
        </mxCell>
        <mxCell id="39qr3r9xYdan70bBbCt1-43" value="Вид" style="ellipse;whiteSpace=wrap;html=1;" parent="WIyWlLk6GJQsqaUBKTNV-1" vertex="1">
          <mxGeometry x="57" y="618" width="40" height="20" as="geometry" />
        </mxCell>
        <mxCell id="39qr3r9xYdan70bBbCt1-44" value="" style="endArrow=none;html=1;rounded=0;edgeStyle=orthogonalEdgeStyle;entryX=0.5;entryY=0;entryDx=0;entryDy=0;fontStyle=1;exitX=0.5;exitY=1;exitDx=0;exitDy=0;" parent="WIyWlLk6GJQsqaUBKTNV-1" source="39qr3r9xYdan70bBbCt1-0" target="39qr3r9xYdan70bBbCt1-45" edge="1">
          <mxGeometry width="50" height="50" relative="1" as="geometry">
            <mxPoint x="136" y="770" as="sourcePoint" />
            <mxPoint x="766" y="640" as="targetPoint" />
          </mxGeometry>
        </mxCell>
        <mxCell id="39qr3r9xYdan70bBbCt1-45" value="Единица измерения" style="ellipse;whiteSpace=wrap;html=1;" parent="WIyWlLk6GJQsqaUBKTNV-1" vertex="1">
          <mxGeometry x="65" y="641" width="100" height="30" as="geometry" />
        </mxCell>
        <mxCell id="39qr3r9xYdan70bBbCt1-49" value="Секторы" style="rounded=0;whiteSpace=wrap;html=1;fontStyle=1" parent="WIyWlLk6GJQsqaUBKTNV-1" vertex="1">
          <mxGeometry x="600" y="80" width="110" height="30" as="geometry" />
        </mxCell>
        <mxCell id="39qr3r9xYdan70bBbCt1-50" value="Работают в" style="rhombus;whiteSpace=wrap;html=1;fontStyle=1" parent="WIyWlLk6GJQsqaUBKTNV-1" vertex="1">
          <mxGeometry x="230" y="160" width="110" height="40" as="geometry" />
        </mxCell>
        <mxCell id="39qr3r9xYdan70bBbCt1-51" value="" style="endArrow=none;html=1;rounded=0;edgeStyle=orthogonalEdgeStyle;entryX=0.5;entryY=1;entryDx=0;entryDy=0;exitX=0.5;exitY=0;exitDx=0;exitDy=0;fontStyle=1" parent="WIyWlLk6GJQsqaUBKTNV-1" source="39qr3r9xYdan70bBbCt1-50" target="p_pnH_h7yqQXDwHXi8lg-0" edge="1">
          <mxGeometry width="50" height="50" relative="1" as="geometry">
            <mxPoint x="430" y="340" as="sourcePoint" />
            <mxPoint x="480" y="290" as="targetPoint" />
          </mxGeometry>
        </mxCell>
        <mxCell id="39qr3r9xYdan70bBbCt1-52" value="&lt;font style=&quot;font-size: 18px;&quot;&gt;1&lt;/font&gt;" style="edgeLabel;html=1;align=center;verticalAlign=middle;resizable=0;points=[];fontStyle=1" parent="39qr3r9xYdan70bBbCt1-51" vertex="1" connectable="0">
          <mxGeometry x="0.12" relative="1" as="geometry">
            <mxPoint as="offset" />
          </mxGeometry>
        </mxCell>
        <mxCell id="39qr3r9xYdan70bBbCt1-53" value="" style="endArrow=none;html=1;rounded=0;edgeStyle=orthogonalEdgeStyle;entryX=0.5;entryY=1;entryDx=0;entryDy=0;fontStyle=1;exitX=0.5;exitY=0;exitDx=0;exitDy=0;" parent="WIyWlLk6GJQsqaUBKTNV-1" source="39qr3r9xYdan70bBbCt1-49" target="39qr3r9xYdan70bBbCt1-54" edge="1">
          <mxGeometry width="50" height="50" relative="1" as="geometry">
            <mxPoint x="1330" y="210" as="sourcePoint" />
            <mxPoint x="1110" y="120" as="targetPoint" />
          </mxGeometry>
        </mxCell>
        <mxCell id="39qr3r9xYdan70bBbCt1-54" value="Наименование" style="ellipse;whiteSpace=wrap;html=1;" parent="WIyWlLk6GJQsqaUBKTNV-1" vertex="1">
          <mxGeometry x="600" y="50" width="110" height="20" as="geometry" />
        </mxCell>
        <mxCell id="p_pnH_h7yqQXDwHXi8lg-0" value="Отделы" style="rounded=0;whiteSpace=wrap;html=1;fontStyle=1" parent="WIyWlLk6GJQsqaUBKTNV-1" vertex="1">
          <mxGeometry x="230" y="80" width="110" height="30" as="geometry" />
        </mxCell>
        <mxCell id="p_pnH_h7yqQXDwHXi8lg-1" value="" style="endArrow=none;html=1;rounded=0;edgeStyle=orthogonalEdgeStyle;entryX=0.5;entryY=1;entryDx=0;entryDy=0;fontStyle=1;exitX=0.5;exitY=0;exitDx=0;exitDy=0;" parent="WIyWlLk6GJQsqaUBKTNV-1" source="p_pnH_h7yqQXDwHXi8lg-0" target="p_pnH_h7yqQXDwHXi8lg-2" edge="1">
          <mxGeometry width="50" height="50" relative="1" as="geometry">
            <mxPoint x="980" y="210" as="sourcePoint" />
            <mxPoint x="760" y="120" as="targetPoint" />
          </mxGeometry>
        </mxCell>
        <mxCell id="p_pnH_h7yqQXDwHXi8lg-2" value="Наименование" style="ellipse;whiteSpace=wrap;html=1;" parent="WIyWlLk6GJQsqaUBKTNV-1" vertex="1">
          <mxGeometry x="230" y="50" width="110" height="20" as="geometry" />
        </mxCell>
        <mxCell id="p_pnH_h7yqQXDwHXi8lg-4" value="Принадлежат" style="rhombus;whiteSpace=wrap;html=1;fontStyle=1" parent="WIyWlLk6GJQsqaUBKTNV-1" vertex="1">
          <mxGeometry x="430" y="75" width="110" height="40" as="geometry" />
        </mxCell>
        <mxCell id="p_pnH_h7yqQXDwHXi8lg-5" value="" style="endArrow=none;html=1;rounded=0;edgeStyle=orthogonalEdgeStyle;entryX=0;entryY=0.5;entryDx=0;entryDy=0;fontStyle=1;exitX=1;exitY=0.5;exitDx=0;exitDy=0;" parent="WIyWlLk6GJQsqaUBKTNV-1" source="p_pnH_h7yqQXDwHXi8lg-4" target="39qr3r9xYdan70bBbCt1-49" edge="1">
          <mxGeometry width="50" height="50" relative="1" as="geometry">
            <mxPoint x="430" y="180" as="sourcePoint" />
            <mxPoint x="370" y="105" as="targetPoint" />
          </mxGeometry>
        </mxCell>
        <mxCell id="p_pnH_h7yqQXDwHXi8lg-9" value="&lt;b&gt;&lt;font style=&quot;font-size: 18px;&quot;&gt;N&lt;/font&gt;&lt;/b&gt;" style="edgeLabel;html=1;align=center;verticalAlign=middle;resizable=0;points=[];" parent="p_pnH_h7yqQXDwHXi8lg-5" vertex="1" connectable="0">
          <mxGeometry x="-0.1667" relative="1" as="geometry">
            <mxPoint as="offset" />
          </mxGeometry>
        </mxCell>
        <mxCell id="p_pnH_h7yqQXDwHXi8lg-10" value="Виды процессов" style="rounded=0;whiteSpace=wrap;html=1;fontStyle=1" parent="WIyWlLk6GJQsqaUBKTNV-1" vertex="1">
          <mxGeometry x="-158" y="440" width="110" height="30" as="geometry" />
        </mxCell>
        <mxCell id="p_pnH_h7yqQXDwHXi8lg-11" value="Категории процессов" style="rounded=0;whiteSpace=wrap;html=1;fontStyle=1" parent="WIyWlLk6GJQsqaUBKTNV-1" vertex="1">
          <mxGeometry x="-44" y="440" width="110" height="31" as="geometry" />
        </mxCell>
        <mxCell id="p_pnH_h7yqQXDwHXi8lg-12" value="Принадлежат" style="rhombus;whiteSpace=wrap;html=1;fontStyle=1" parent="WIyWlLk6GJQsqaUBKTNV-1" vertex="1">
          <mxGeometry x="-44" y="505" width="110" height="40" as="geometry" />
        </mxCell>
        <mxCell id="p_pnH_h7yqQXDwHXi8lg-13" value="Имеются" style="rhombus;whiteSpace=wrap;html=1;fontStyle=1" parent="WIyWlLk6GJQsqaUBKTNV-1" vertex="1">
          <mxGeometry x="-158" y="573" width="110" height="40" as="geometry" />
        </mxCell>
        <mxCell id="p_pnH_h7yqQXDwHXi8lg-14" value="" style="endArrow=none;html=1;rounded=0;edgeStyle=orthogonalEdgeStyle;fontStyle=1;entryX=1;entryY=0.5;entryDx=0;entryDy=0;exitX=0;exitY=0.75;exitDx=0;exitDy=0;" parent="WIyWlLk6GJQsqaUBKTNV-1" source="39qr3r9xYdan70bBbCt1-0" target="p_pnH_h7yqQXDwHXi8lg-13" edge="1">
          <mxGeometry width="50" height="50" relative="1" as="geometry">
            <mxPoint x="136" y="650" as="sourcePoint" />
            <mxPoint x="66" y="700" as="targetPoint" />
          </mxGeometry>
        </mxCell>
        <mxCell id="p_pnH_h7yqQXDwHXi8lg-51" value="&lt;b&gt;&lt;font style=&quot;font-size: 18px;&quot;&gt;N&lt;/font&gt;&lt;/b&gt;" style="edgeLabel;html=1;align=center;verticalAlign=middle;resizable=0;points=[];" parent="p_pnH_h7yqQXDwHXi8lg-14" vertex="1" connectable="0">
          <mxGeometry y="-2" relative="1" as="geometry">
            <mxPoint x="-24" y="1" as="offset" />
          </mxGeometry>
        </mxCell>
        <mxCell id="p_pnH_h7yqQXDwHXi8lg-15" value="" style="endArrow=none;html=1;rounded=0;edgeStyle=orthogonalEdgeStyle;entryX=0.5;entryY=1;entryDx=0;entryDy=0;fontStyle=1;exitX=0;exitY=0.5;exitDx=0;exitDy=0;" parent="WIyWlLk6GJQsqaUBKTNV-1" source="39qr3r9xYdan70bBbCt1-0" target="p_pnH_h7yqQXDwHXi8lg-12" edge="1">
          <mxGeometry width="50" height="50" relative="1" as="geometry">
            <mxPoint x="6" y="525" as="sourcePoint" />
            <mxPoint x="6" y="590" as="targetPoint" />
          </mxGeometry>
        </mxCell>
        <mxCell id="p_pnH_h7yqQXDwHXi8lg-92" value="&lt;font style=&quot;font-size: 18px;&quot;&gt;&lt;b&gt;N&lt;/b&gt;&lt;/font&gt;" style="edgeLabel;html=1;align=center;verticalAlign=middle;resizable=0;points=[];" parent="p_pnH_h7yqQXDwHXi8lg-15" vertex="1" connectable="0">
          <mxGeometry x="0.5281" relative="1" as="geometry">
            <mxPoint as="offset" />
          </mxGeometry>
        </mxCell>
        <mxCell id="p_pnH_h7yqQXDwHXi8lg-16" value="" style="endArrow=none;html=1;rounded=0;edgeStyle=orthogonalEdgeStyle;fontStyle=1;exitX=0.5;exitY=0;exitDx=0;exitDy=0;entryX=0.5;entryY=1;entryDx=0;entryDy=0;" parent="WIyWlLk6GJQsqaUBKTNV-1" source="39qr3r9xYdan70bBbCt1-0" target="p_pnH_h7yqQXDwHXi8lg-46" edge="1">
          <mxGeometry width="50" height="50" relative="1" as="geometry">
            <mxPoint x="156" y="695" as="sourcePoint" />
            <mxPoint x="196" y="740" as="targetPoint" />
          </mxGeometry>
        </mxCell>
        <mxCell id="p_pnH_h7yqQXDwHXi8lg-53" value="&lt;b&gt;&lt;font style=&quot;font-size: 18px;&quot;&gt;N&lt;/font&gt;&lt;/b&gt;" style="edgeLabel;html=1;align=center;verticalAlign=middle;resizable=0;points=[];" parent="p_pnH_h7yqQXDwHXi8lg-16" vertex="1" connectable="0">
          <mxGeometry x="0.3176" y="-1" relative="1" as="geometry">
            <mxPoint x="-1" y="3" as="offset" />
          </mxGeometry>
        </mxCell>
        <mxCell id="p_pnH_h7yqQXDwHXi8lg-17" value="" style="endArrow=none;html=1;rounded=0;edgeStyle=orthogonalEdgeStyle;entryX=0.5;entryY=1;entryDx=0;entryDy=0;fontStyle=1;exitX=0.5;exitY=0;exitDx=0;exitDy=0;" parent="WIyWlLk6GJQsqaUBKTNV-1" source="p_pnH_h7yqQXDwHXi8lg-46" target="W_4Bm7sXQjZraBUoMWmw-4" edge="1">
          <mxGeometry width="50" height="50" relative="1" as="geometry">
            <mxPoint x="271" y="682" as="sourcePoint" />
            <mxPoint x="271" y="747" as="targetPoint" />
          </mxGeometry>
        </mxCell>
        <mxCell id="p_pnH_h7yqQXDwHXi8lg-90" value="&lt;b&gt;&lt;font style=&quot;font-size: 18px;&quot;&gt;M&lt;/font&gt;&lt;/b&gt;" style="edgeLabel;html=1;align=center;verticalAlign=middle;resizable=0;points=[];" parent="p_pnH_h7yqQXDwHXi8lg-17" vertex="1" connectable="0">
          <mxGeometry x="-0.08" y="-2" relative="1" as="geometry">
            <mxPoint as="offset" />
          </mxGeometry>
        </mxCell>
        <mxCell id="p_pnH_h7yqQXDwHXi8lg-43" value="" style="endArrow=none;html=1;rounded=0;edgeStyle=orthogonalEdgeStyle;fontStyle=1;entryX=0.5;entryY=0;entryDx=0;entryDy=0;exitX=0.5;exitY=1;exitDx=0;exitDy=0;" parent="WIyWlLk6GJQsqaUBKTNV-1" source="p_pnH_h7yqQXDwHXi8lg-11" target="p_pnH_h7yqQXDwHXi8lg-12" edge="1">
          <mxGeometry width="50" height="50" relative="1" as="geometry">
            <mxPoint x="-234" y="615" as="sourcePoint" />
            <mxPoint x="-124" y="680" as="targetPoint" />
            <Array as="points" />
          </mxGeometry>
        </mxCell>
        <mxCell id="p_pnH_h7yqQXDwHXi8lg-93" value="&lt;b&gt;&lt;font style=&quot;font-size: 18px;&quot;&gt;1&lt;/font&gt;&lt;/b&gt;" style="edgeLabel;html=1;align=center;verticalAlign=middle;resizable=0;points=[];" parent="p_pnH_h7yqQXDwHXi8lg-43" vertex="1" connectable="0">
          <mxGeometry x="-0.2353" y="1" relative="1" as="geometry">
            <mxPoint x="-2" y="6" as="offset" />
          </mxGeometry>
        </mxCell>
        <mxCell id="p_pnH_h7yqQXDwHXi8lg-46" value="Содержат" style="rhombus;whiteSpace=wrap;html=1;fontStyle=1" parent="WIyWlLk6GJQsqaUBKTNV-1" vertex="1">
          <mxGeometry x="60" y="480" width="110" height="40" as="geometry" />
        </mxCell>
        <mxCell id="p_pnH_h7yqQXDwHXi8lg-55" value="" style="endArrow=none;html=1;rounded=0;edgeStyle=orthogonalEdgeStyle;entryX=0;entryY=0.5;entryDx=0;entryDy=0;fontStyle=1;exitX=1;exitY=0.5;exitDx=0;exitDy=0;" parent="WIyWlLk6GJQsqaUBKTNV-1" source="39qr3r9xYdan70bBbCt1-0" target="p_pnH_h7yqQXDwHXi8lg-95" edge="1">
          <mxGeometry width="50" height="50" relative="1" as="geometry">
            <mxPoint x="230" y="470" as="sourcePoint" />
            <mxPoint x="230" y="535" as="targetPoint" />
          </mxGeometry>
        </mxCell>
        <mxCell id="p_pnH_h7yqQXDwHXi8lg-98" value="&lt;b&gt;&lt;font style=&quot;font-size: 18px;&quot;&gt;0&lt;/font&gt;&lt;/b&gt;" style="edgeLabel;html=1;align=center;verticalAlign=middle;resizable=0;points=[];" parent="p_pnH_h7yqQXDwHXi8lg-55" vertex="1" connectable="0">
          <mxGeometry x="-0.1" y="2" relative="1" as="geometry">
            <mxPoint as="offset" />
          </mxGeometry>
        </mxCell>
        <mxCell id="p_pnH_h7yqQXDwHXi8lg-83" value="Содержат" style="rhombus;whiteSpace=wrap;html=1;fontStyle=1" parent="WIyWlLk6GJQsqaUBKTNV-1" vertex="1">
          <mxGeometry x="60" y="321" width="110" height="40" as="geometry" />
        </mxCell>
        <mxCell id="p_pnH_h7yqQXDwHXi8lg-84" value="" style="endArrow=none;html=1;rounded=0;edgeStyle=orthogonalEdgeStyle;exitX=0.5;exitY=0;exitDx=0;exitDy=0;entryX=0.5;entryY=1;entryDx=0;entryDy=0;" parent="WIyWlLk6GJQsqaUBKTNV-1" source="W_4Bm7sXQjZraBUoMWmw-4" target="p_pnH_h7yqQXDwHXi8lg-83" edge="1">
          <mxGeometry width="50" height="50" relative="1" as="geometry">
            <mxPoint x="20" y="470" as="sourcePoint" />
            <mxPoint x="20" y="410" as="targetPoint" />
          </mxGeometry>
        </mxCell>
        <mxCell id="p_pnH_h7yqQXDwHXi8lg-89" value="&lt;b&gt;&lt;font style=&quot;font-size: 18px;&quot;&gt;M&lt;/font&gt;&lt;/b&gt;" style="edgeLabel;html=1;align=center;verticalAlign=middle;resizable=0;points=[];" parent="p_pnH_h7yqQXDwHXi8lg-84" vertex="1" connectable="0">
          <mxGeometry x="0.1636" y="2" relative="1" as="geometry">
            <mxPoint as="offset" />
          </mxGeometry>
        </mxCell>
        <mxCell id="p_pnH_h7yqQXDwHXi8lg-86" value="" style="endArrow=none;html=1;rounded=0;edgeStyle=orthogonalEdgeStyle;entryX=0.5;entryY=0;entryDx=0;entryDy=0;fontStyle=1;exitX=0.5;exitY=1;exitDx=0;exitDy=0;" parent="WIyWlLk6GJQsqaUBKTNV-1" source="W_4Bm7sXQjZraBUoMWmw-3" target="p_pnH_h7yqQXDwHXi8lg-83" edge="1">
          <mxGeometry width="50" height="50" relative="1" as="geometry">
            <mxPoint x="200" y="400" as="sourcePoint" />
            <mxPoint x="200" y="465" as="targetPoint" />
          </mxGeometry>
        </mxCell>
        <mxCell id="p_pnH_h7yqQXDwHXi8lg-87" value="&lt;b&gt;&lt;font style=&quot;font-size: 18px;&quot;&gt;N&lt;/font&gt;&lt;/b&gt;" style="edgeLabel;html=1;align=center;verticalAlign=middle;resizable=0;points=[];" parent="p_pnH_h7yqQXDwHXi8lg-86" vertex="1" connectable="0">
          <mxGeometry x="0.0333" relative="1" as="geometry">
            <mxPoint as="offset" />
          </mxGeometry>
        </mxCell>
        <mxCell id="p_pnH_h7yqQXDwHXi8lg-94" value="Единицы измерения" style="rounded=0;whiteSpace=wrap;html=1;fontStyle=1" parent="WIyWlLk6GJQsqaUBKTNV-1" vertex="1">
          <mxGeometry x="390" y="570" width="110" height="30" as="geometry" />
        </mxCell>
        <mxCell id="p_pnH_h7yqQXDwHXi8lg-95" value="Измеряются в" style="rhombus;whiteSpace=wrap;html=1;fontStyle=1" parent="WIyWlLk6GJQsqaUBKTNV-1" vertex="1">
          <mxGeometry x="230" y="565" width="110" height="40" as="geometry" />
        </mxCell>
        <mxCell id="p_pnH_h7yqQXDwHXi8lg-96" value="" style="endArrow=none;html=1;rounded=0;edgeStyle=orthogonalEdgeStyle;entryX=0.836;entryY=-0.033;entryDx=0;entryDy=0;fontStyle=1;exitX=0.5;exitY=1;exitDx=0;exitDy=0;entryPerimeter=0;" parent="WIyWlLk6GJQsqaUBKTNV-1" source="p_pnH_h7yqQXDwHXi8lg-103" target="39qr3r9xYdan70bBbCt1-0" edge="1">
          <mxGeometry width="50" height="50" relative="1" as="geometry">
            <mxPoint x="285" y="445" as="sourcePoint" />
            <mxPoint x="240" y="405" as="targetPoint" />
            <Array as="points">
              <mxPoint x="285" y="540" />
              <mxPoint x="152" y="540" />
            </Array>
          </mxGeometry>
        </mxCell>
        <mxCell id="p_pnH_h7yqQXDwHXi8lg-110" value="&lt;font style=&quot;font-size: 18px;&quot;&gt;&lt;b&gt;N&lt;/b&gt;&lt;/font&gt;" style="edgeLabel;html=1;align=center;verticalAlign=middle;resizable=0;points=[];" parent="p_pnH_h7yqQXDwHXi8lg-96" vertex="1" connectable="0">
          <mxGeometry x="0.4404" y="-1" relative="1" as="geometry">
            <mxPoint x="78" y="-49" as="offset" />
          </mxGeometry>
        </mxCell>
        <mxCell id="p_pnH_h7yqQXDwHXi8lg-97" value="" style="endArrow=none;html=1;rounded=0;edgeStyle=orthogonalEdgeStyle;fontStyle=1;exitX=1;exitY=0.5;exitDx=0;exitDy=0;entryX=0;entryY=0.5;entryDx=0;entryDy=0;" parent="WIyWlLk6GJQsqaUBKTNV-1" source="p_pnH_h7yqQXDwHXi8lg-95" target="p_pnH_h7yqQXDwHXi8lg-94" edge="1">
          <mxGeometry width="50" height="50" relative="1" as="geometry">
            <mxPoint x="310" y="613" as="sourcePoint" />
            <mxPoint x="350" y="585" as="targetPoint" />
          </mxGeometry>
        </mxCell>
        <mxCell id="p_pnH_h7yqQXDwHXi8lg-99" value="&lt;font style=&quot;font-size: 18px;&quot;&gt;&lt;b&gt;1&lt;/b&gt;&lt;/font&gt;" style="edgeLabel;html=1;align=center;verticalAlign=middle;resizable=0;points=[];" parent="p_pnH_h7yqQXDwHXi8lg-97" vertex="1" connectable="0">
          <mxGeometry x="-0.04" y="3" relative="1" as="geometry">
            <mxPoint as="offset" />
          </mxGeometry>
        </mxCell>
        <mxCell id="p_pnH_h7yqQXDwHXi8lg-100" value="&lt;b&gt;&lt;font style=&quot;font-size: 18px;&quot;&gt;N&lt;/font&gt;&lt;/b&gt;" style="text;html=1;align=center;verticalAlign=middle;resizable=0;points=[];autosize=1;strokeColor=none;fillColor=none;" parent="WIyWlLk6GJQsqaUBKTNV-1" vertex="1">
          <mxGeometry x="180" y="585" width="40" height="40" as="geometry" />
        </mxCell>
        <mxCell id="p_pnH_h7yqQXDwHXi8lg-101" value="Истории переходов пользователей" style="rounded=0;whiteSpace=wrap;html=1;fontStyle=1" parent="WIyWlLk6GJQsqaUBKTNV-1" vertex="1">
          <mxGeometry x="530" y="251" width="131" height="29" as="geometry" />
        </mxCell>
        <mxCell id="p_pnH_h7yqQXDwHXi8lg-102" value="Назначения процессов пользователям" style="rounded=0;whiteSpace=wrap;html=1;fontStyle=1" parent="WIyWlLk6GJQsqaUBKTNV-1" vertex="1">
          <mxGeometry x="390" y="371.5" width="140" height="29" as="geometry" />
        </mxCell>
        <mxCell id="p_pnH_h7yqQXDwHXi8lg-103" value="Хранятся в" style="rhombus;whiteSpace=wrap;html=1;fontStyle=1" parent="WIyWlLk6GJQsqaUBKTNV-1" vertex="1">
          <mxGeometry x="225" y="361" width="120" height="50" as="geometry" />
        </mxCell>
        <mxCell id="p_pnH_h7yqQXDwHXi8lg-104" value="" style="endArrow=none;html=1;rounded=0;edgeStyle=orthogonalEdgeStyle;fontStyle=1;exitX=1;exitY=0.75;exitDx=0;exitDy=0;entryX=0.5;entryY=0;entryDx=0;entryDy=0;" parent="WIyWlLk6GJQsqaUBKTNV-1" source="W_4Bm7sXQjZraBUoMWmw-3" target="p_pnH_h7yqQXDwHXi8lg-103" edge="1">
          <mxGeometry width="50" height="50" relative="1" as="geometry">
            <mxPoint x="210" y="280" as="sourcePoint" />
            <mxPoint x="400" y="310" as="targetPoint" />
          </mxGeometry>
        </mxCell>
        <mxCell id="p_pnH_h7yqQXDwHXi8lg-112" value="&lt;font style=&quot;font-size: 18px;&quot;&gt;&lt;b&gt;N&lt;/b&gt;&lt;/font&gt;" style="edgeLabel;html=1;align=center;verticalAlign=middle;resizable=0;points=[];" parent="p_pnH_h7yqQXDwHXi8lg-104" vertex="1" connectable="0">
          <mxGeometry x="0.6867" relative="1" as="geometry">
            <mxPoint as="offset" />
          </mxGeometry>
        </mxCell>
        <mxCell id="p_pnH_h7yqQXDwHXi8lg-107" value="" style="endArrow=none;html=1;rounded=0;edgeStyle=orthogonalEdgeStyle;entryX=0;entryY=0.5;entryDx=0;entryDy=0;fontStyle=1;exitX=1;exitY=0.5;exitDx=0;exitDy=0;" parent="WIyWlLk6GJQsqaUBKTNV-1" source="p_pnH_h7yqQXDwHXi8lg-103" target="p_pnH_h7yqQXDwHXi8lg-102" edge="1">
          <mxGeometry width="50" height="50" relative="1" as="geometry">
            <mxPoint x="405" y="306.5" as="sourcePoint" />
            <mxPoint x="405" y="371.5" as="targetPoint" />
          </mxGeometry>
        </mxCell>
        <mxCell id="p_pnH_h7yqQXDwHXi8lg-111" value="&lt;font style=&quot;font-size: 18px;&quot;&gt;&lt;b&gt;M&lt;/b&gt;&lt;/font&gt;" style="edgeLabel;html=1;align=center;verticalAlign=middle;resizable=0;points=[];" parent="p_pnH_h7yqQXDwHXi8lg-107" vertex="1" connectable="0">
          <mxGeometry x="-0.0909" relative="1" as="geometry">
            <mxPoint as="offset" />
          </mxGeometry>
        </mxCell>
        <mxCell id="p_pnH_h7yqQXDwHXi8lg-109" value="" style="endArrow=none;html=1;rounded=0;edgeStyle=orthogonalEdgeStyle;entryX=0;entryY=0.5;entryDx=0;entryDy=0;fontStyle=1;exitX=1;exitY=0.5;exitDx=0;exitDy=0;" parent="WIyWlLk6GJQsqaUBKTNV-1" edge="1" target="p_pnH_h7yqQXDwHXi8lg-101" source="mKOUIwd8ntVCIf2b0NwY-5">
          <mxGeometry width="50" height="50" relative="1" as="geometry">
            <mxPoint x="470" y="275" as="sourcePoint" />
            <mxPoint x="470" y="340" as="targetPoint" />
            <Array as="points" />
          </mxGeometry>
        </mxCell>
        <mxCell id="mKOUIwd8ntVCIf2b0NwY-18" value="&lt;font style=&quot;font-size: 18px;&quot;&gt;&lt;b&gt;M&lt;/b&gt;&lt;/font&gt;" style="edgeLabel;html=1;align=center;verticalAlign=middle;resizable=0;points=[];" vertex="1" connectable="0" parent="p_pnH_h7yqQXDwHXi8lg-109">
          <mxGeometry x="-0.3113" y="1" relative="1" as="geometry">
            <mxPoint x="4" y="1" as="offset" />
          </mxGeometry>
        </mxCell>
        <mxCell id="mKOUIwd8ntVCIf2b0NwY-4" value="" style="endArrow=none;html=1;rounded=0;edgeStyle=orthogonalEdgeStyle;fontStyle=1;exitX=1;exitY=0.5;exitDx=0;exitDy=0;entryX=0;entryY=0.5;entryDx=0;entryDy=0;" edge="1" parent="WIyWlLk6GJQsqaUBKTNV-1" source="W_4Bm7sXQjZraBUoMWmw-3" target="mKOUIwd8ntVCIf2b0NwY-5">
          <mxGeometry width="50" height="50" relative="1" as="geometry">
            <mxPoint x="320" y="241" as="sourcePoint" />
            <mxPoint x="340" y="270" as="targetPoint" />
            <Array as="points" />
          </mxGeometry>
        </mxCell>
        <mxCell id="mKOUIwd8ntVCIf2b0NwY-17" value="&lt;b&gt;&lt;font style=&quot;font-size: 18px;&quot;&gt;N&lt;/font&gt;&lt;/b&gt;" style="edgeLabel;html=1;align=center;verticalAlign=middle;resizable=0;points=[];" vertex="1" connectable="0" parent="mKOUIwd8ntVCIf2b0NwY-4">
          <mxGeometry x="0.5429" y="-2" relative="1" as="geometry">
            <mxPoint as="offset" />
          </mxGeometry>
        </mxCell>
        <mxCell id="mKOUIwd8ntVCIf2b0NwY-5" value="Хранятся в" style="rhombus;whiteSpace=wrap;html=1;fontStyle=1" vertex="1" parent="WIyWlLk6GJQsqaUBKTNV-1">
          <mxGeometry x="345" y="245" width="110" height="40" as="geometry" />
        </mxCell>
        <mxCell id="mKOUIwd8ntVCIf2b0NwY-7" value="Дата начала" style="ellipse;whiteSpace=wrap;html=1;" vertex="1" parent="WIyWlLk6GJQsqaUBKTNV-1">
          <mxGeometry x="180" y="342.5" width="66" height="29" as="geometry" />
        </mxCell>
        <mxCell id="mKOUIwd8ntVCIf2b0NwY-8" value="" style="endArrow=none;html=1;rounded=0;edgeStyle=orthogonalEdgeStyle;fontStyle=1;exitX=0;exitY=0.5;exitDx=0;exitDy=0;entryX=0.5;entryY=1;entryDx=0;entryDy=0;" edge="1" parent="WIyWlLk6GJQsqaUBKTNV-1" source="p_pnH_h7yqQXDwHXi8lg-103" target="mKOUIwd8ntVCIf2b0NwY-7">
          <mxGeometry width="50" height="50" relative="1" as="geometry">
            <mxPoint x="229" y="398" as="sourcePoint" />
            <mxPoint x="200" y="450" as="targetPoint" />
          </mxGeometry>
        </mxCell>
        <mxCell id="mKOUIwd8ntVCIf2b0NwY-9" value="Дата завершения" style="ellipse;whiteSpace=wrap;html=1;" vertex="1" parent="WIyWlLk6GJQsqaUBKTNV-1">
          <mxGeometry x="175" y="411" width="76" height="39" as="geometry" />
        </mxCell>
        <mxCell id="mKOUIwd8ntVCIf2b0NwY-10" value="" style="endArrow=none;html=1;rounded=0;edgeStyle=orthogonalEdgeStyle;entryX=0.5;entryY=0;entryDx=0;entryDy=0;fontStyle=1;exitX=0;exitY=0.5;exitDx=0;exitDy=0;" edge="1" parent="WIyWlLk6GJQsqaUBKTNV-1" source="p_pnH_h7yqQXDwHXi8lg-103" target="mKOUIwd8ntVCIf2b0NwY-9">
          <mxGeometry width="50" height="50" relative="1" as="geometry">
            <mxPoint x="243" y="368" as="sourcePoint" />
            <mxPoint x="230" y="458" as="targetPoint" />
          </mxGeometry>
        </mxCell>
        <mxCell id="mKOUIwd8ntVCIf2b0NwY-12" value="Дата начала" style="ellipse;whiteSpace=wrap;html=1;" vertex="1" parent="WIyWlLk6GJQsqaUBKTNV-1">
          <mxGeometry x="367" y="200" width="66" height="29" as="geometry" />
        </mxCell>
        <mxCell id="mKOUIwd8ntVCIf2b0NwY-13" value="" style="endArrow=none;html=1;rounded=0;edgeStyle=orthogonalEdgeStyle;fontStyle=1;exitX=0.5;exitY=0;exitDx=0;exitDy=0;entryX=0.5;entryY=1;entryDx=0;entryDy=0;" edge="1" parent="WIyWlLk6GJQsqaUBKTNV-1" target="mKOUIwd8ntVCIf2b0NwY-12" source="mKOUIwd8ntVCIf2b0NwY-5">
          <mxGeometry width="50" height="50" relative="1" as="geometry">
            <mxPoint x="457" y="169.75" as="sourcePoint" />
            <mxPoint x="432" y="233.75" as="targetPoint" />
          </mxGeometry>
        </mxCell>
        <mxCell id="mKOUIwd8ntVCIf2b0NwY-14" value="Дата завершения" style="ellipse;whiteSpace=wrap;html=1;" vertex="1" parent="WIyWlLk6GJQsqaUBKTNV-1">
          <mxGeometry x="360" y="300" width="76" height="39" as="geometry" />
        </mxCell>
        <mxCell id="mKOUIwd8ntVCIf2b0NwY-15" value="" style="endArrow=none;html=1;rounded=0;edgeStyle=orthogonalEdgeStyle;entryX=0.5;entryY=0;entryDx=0;entryDy=0;fontStyle=1;exitX=0.5;exitY=1;exitDx=0;exitDy=0;" edge="1" parent="WIyWlLk6GJQsqaUBKTNV-1" target="mKOUIwd8ntVCIf2b0NwY-14" source="mKOUIwd8ntVCIf2b0NwY-5">
          <mxGeometry width="50" height="50" relative="1" as="geometry">
            <mxPoint x="457" y="169.75" as="sourcePoint" />
            <mxPoint x="462" y="241.75" as="targetPoint" />
          </mxGeometry>
        </mxCell>
      </root>
    </mxGraphModel>
  </diagram>
</mxfile>
